<?xml version="1.0" standalone="no"?>
<!DOCTYPE svg PUBLIC "-//W3C//DTD SVG 20010904//EN"
 "http://www.w3.org/TR/2001/REC-SVG-20010904/DTD/svg10.dtd">
<svg version="1.0" xmlns="http://www.w3.org/2000/svg"
 width="320.000000pt" height="320.000000pt" viewBox="0 0 320.000000 320.000000"
 preserveAspectRatio="xMidYMid meet">
<metadata>
Created by potrace 1.11, written by Peter Selinger 2001-2013
</metadata>
<g transform="translate(0.000000,320.000000) scale(0.100000,-0.100000)"
fill="#000000" stroke="none">
<path d="M410 1645 l0 -395 75 0 75 0 0 360 0 360 93 0 c84 -1 96 -3 132 -28
52 -36 66 -94 38 -149 -11 -20 -27 -41 -37 -47 -10 -6 -29 -20 -41 -31 -32
-28 -46 -39 -78 -59 -15 -10 -27 -26 -27 -35 0 -9 50 -92 110 -186 60 -93 110
-173 110 -177 0 -5 41 -8 90 -8 64 0 90 4 90 12 0 7 -54 83 -120 170 -66 87
-123 164 -126 172 -3 8 9 25 31 43 20 15 53 51 73 78 33 45 37 57 40 127 4 67
1 81 -18 108 -12 16 -27 30 -33 30 -7 0 -25 11 -41 25 -29 25 -30 25 -233 25
l-203 0 0 -395z"/>
<path d="M1355 2016 c-76 -29 -96 -56 -102 -140 -6 -63 -4 -69 33 -129 46 -75
56 -83 119 -97 130 -28 211 -59 254 -99 38 -35 42 -43 39 -78 -3 -37 -6 -40
-83 -80 -97 -51 -140 -54 -239 -16 l-70 26 -43 -49 c-24 -26 -43 -51 -43 -55
0 -4 17 -15 37 -25 60 -28 207 -30 328 -5 128 27 175 40 175 50 0 4 11 13 24
20 56 30 63 140 17 243 -26 56 -37 69 -90 102 -33 20 -87 44 -118 52 -66 17
-160 58 -184 80 -14 12 -15 22 -8 43 17 48 38 53 205 52 l154 -2 0 23 c0 22
-29 47 -105 90 -48 27 -222 24 -300 -6z"/>
<path d="M2291 1978 c-5 -13 -64 -162 -131 -333 -67 -170 -125 -318 -127 -327
-5 -16 4 -18 83 -18 l89 0 105 265 c58 145 108 261 111 257 5 -5 162 -386 206
-499 4 -9 31 -13 89 -13 73 0 84 2 84 18 0 9 -56 163 -124 342 l-123 325 -127
3 c-123 3 -126 2 -135 -20z"/>
</g>
</svg>
